<?xml version="1.0" encoding="utf-8"?>
<!-- Generator: Adobe Illustrator 25.2.1, SVG Export Plug-In . SVG Version: 6.00 Build 0)  -->
<svg version="1.1" id="Layer_1" xmlns="http://www.w3.org/2000/svg" xmlns:xlink="http://www.w3.org/1999/xlink" x="0px" y="0px"
	 viewBox="0 0 94 67.2" style="enable-background:new 0 0 94 67.2;" xml:space="preserve">
<style type="text/css">
	.st0{fill-rule:evenodd;clip-rule:evenodd;}
</style>
<g id="Clip-56">
</g>
<g>
	<path class="st0" d="M14.1,52.8c0,0.2,0.1,0.4,0.1,0.5c0,0.1,0.1,0.2,0.2,0.2c0.1,0,0.2-0.1,0.2-0.2c0-0.1,0.1-0.3,0.1-0.4v-0.2
		c0-0.2,0-0.3,0-0.3c0-0.1,0-0.2,0.1-0.3c0-0.1,0.1-0.3,0.1-0.5c0-0.1,0-0.1,0-0.3c0-0.1,0-0.2,0-0.3c0-0.1,0-0.2,0-0.3
		s-0.1-0.1-0.1-0.1c-0.1,0-0.3,0-0.4,0.1c-0.1,0.1-0.2,0.2-0.4,0.2c-0.2,0.1-0.4,0.2-0.7,0.2c-0.3,0-0.6,0.1-1,0.1H6.1
		c-0.3,0-0.5,0-0.8-0.1c-0.3-0.1-0.4-0.1-0.5-0.3c0-0.1-0.1-0.2-0.2-0.4c-0.1-0.1-0.2-0.2-0.2-0.2s-0.1,0-0.2,0.1
		c-0.1,0-0.1,0.2-0.1,0.4c0,0.4-0.1,0.7-0.2,1c-0.1,0.3-0.2,0.6-0.4,0.9c-0.1,0.1-0.1,0.2-0.1,0.4c0,0.1,0,0.1,0,0.2
		c0,0,0.1,0.1,0.1,0.1c0.1,0,0.2,0,0.3-0.1s0.2-0.2,0.3-0.3s0.1-0.2,0.2-0.3c0.1-0.2,0.3-0.4,0.6-0.5C5.3,52.1,5.5,52,5.8,52h0.8
		c0.3,0,0.6,0,0.7,0s0.4,0,0.5,0.1c0.1,0,0.2,0.1,0.2,0.2c0.1,0.1,0.1,0.3,0.1,0.6c0,0.3,0,0.7,0,1.3v7c0,0.4-0.1,0.8-0.4,1
		c-0.2,0.2-0.6,0.4-1,0.4c-0.2,0-0.4,0.1-0.4,0.1c-0.1,0-0.1,0.1-0.1,0.2c0,0.1,0,0.1,0.1,0.2c0.1,0,0.2,0,0.4,0c0.3,0,0.6,0,0.8,0
		c0.2,0,0.5,0,0.7,0c0.2,0,0.5,0,0.8,0c0.3,0,0.5,0,0.7,0c0.2,0,0.4,0,0.6,0c0.2,0,0.5,0,0.8,0c0.2,0,0.3,0,0.4,0
		c0.1,0,0.1-0.1,0.1-0.2c0-0.1,0-0.1-0.1-0.2c-0.1,0-0.2-0.1-0.5-0.1c-0.4-0.1-0.8-0.2-1-0.4s-0.4-0.5-0.4-1v-7.1
		c0-0.7,0-1.1,0.1-1.4c0-0.3,0.1-0.5,0.3-0.5c0.1-0.1,0.3-0.1,0.6-0.1h1.8c0.6,0,1,0.1,1.2,0.2C13.9,52.4,14.1,52.6,14.1,52.8z"/>
	<path class="st0" d="M20.1,62c0,0-0.1,0-0.1,0.1c-0.1,0.1-0.4,0.2-0.7,0.2c-0.2,0-0.4-0.1-0.5-0.2s-0.2-0.4-0.2-0.6l0.1-4.3
		c0-0.5-0.1-0.8-0.4-1.1c-0.3-0.3-0.6-0.5-1.1-0.5c-0.2,0-0.5,0.1-0.8,0.2s-0.6,0.3-1,0.5c-0.3,0.2-0.6,0.4-0.9,0.7
		c-0.2,0.2-0.4,0.4-0.5,0.6c-0.1,0.2-0.2,0.4-0.2,0.6c0,0,0,0.1,0.1,0.1c0,0,0.1,0,0.1,0c0.1,0,0.3,0,0.5-0.1s0.4-0.2,0.5-0.3
		c0.1-0.1,0.2-0.2,0.2-0.2c0,0,0-0.1,0-0.2c0-0.1,0-0.1,0-0.2c0-0.1,0-0.2,0-0.3c0-0.1,0.1-0.2,0.1-0.2c0.1-0.1,0.3-0.2,0.4-0.2
		c0.2-0.1,0.4-0.1,0.5-0.1c0.3,0,0.6,0.1,0.8,0.3c0.2,0.2,0.3,0.5,0.3,0.8l0,1.2c0,0.2,0,0.4-0.1,0.5c0,0.1-0.2,0.2-0.4,0.3
		l-1.8,0.8c-0.4,0.2-0.8,0.4-1,0.6c-0.2,0.2-0.3,0.5-0.3,0.9c0,0.2,0.1,0.4,0.2,0.7c0.1,0.2,0.3,0.4,0.6,0.6
		c0.2,0.2,0.4,0.3,0.7,0.3c0.4,0,0.8-0.1,1.1-0.2c0.4-0.2,0.7-0.4,1.1-0.7h0.1c0.3,0.6,0.8,0.9,1.3,0.9c0.2,0,0.4-0.1,0.6-0.2
		c0.2-0.1,0.4-0.3,0.6-0.5c0.1-0.1,0.2-0.3,0.2-0.4c0-0.1,0-0.1-0.1-0.1C20.2,62,20.2,62,20.1,62z M17.4,61.2c0,0.2,0,0.4-0.1,0.5
		c0,0.1-0.1,0.2-0.2,0.2c-0.1,0.1-0.3,0.2-0.5,0.3s-0.4,0.1-0.6,0.1c-0.2,0-0.4-0.1-0.6-0.2c-0.2-0.2-0.3-0.4-0.3-0.7
		c0-0.2,0.1-0.4,0.4-0.7c0.2-0.2,0.7-0.5,1.3-0.7c0.1,0,0.2-0.1,0.2-0.1c0.1,0,0.1,0,0.1,0c0.1,0,0.1,0,0.1,0.1c0,0.1,0,0.2,0,0.3
		L17.4,61.2z"/>
	<path class="st0" d="M28.8,62.7c-0.1,0-0.2-0.1-0.4-0.1c-0.2-0.1-0.4-0.2-0.7-0.3c-0.3-0.1-0.5-0.3-0.7-0.5
		c-0.1-0.1-0.3-0.3-0.6-0.6c-0.3-0.3-0.6-0.6-1-1c-0.4-0.4-0.7-0.8-1-1.2c0,0,0,0,0-0.1c0,0,0,0,0-0.1c0,0,0-0.1,0.1-0.2
		c0.3-0.3,0.6-0.5,0.9-0.8c0.3-0.3,0.6-0.5,0.9-0.7c0.3-0.2,0.4-0.3,0.5-0.4c0.2-0.1,0.4-0.2,0.5-0.3c0.2-0.1,0.4-0.2,0.6-0.3
		c0.1,0,0.2-0.1,0.3-0.1s0.1-0.1,0.1-0.2c0-0.1-0.1-0.2-0.3-0.2c-0.1,0-0.3,0-0.4,0.1c-0.2,0-0.4,0.1-0.6,0.1s-0.4,0.1-0.6,0.1h-0.9
		c-0.1,0-0.2,0-0.3,0.1c-0.1,0-0.1,0.1-0.1,0.2c0,0.1,0.1,0.1,0.2,0.2c0.1,0,0.2,0.1,0.3,0.1c0.1,0,0.2,0.1,0.2,0.2c0,0,0,0.1,0,0.1
		c0,0-0.1,0.1-0.1,0.2c-0.1,0.1-0.3,0.4-0.7,0.7c-0.3,0.3-0.7,0.7-1.2,1.1c-0.1,0.1-0.3,0.2-0.4,0.3c-0.1,0.1-0.2,0.1-0.3,0.1
		c-0.1,0-0.1-0.1-0.1-0.2v-5.9c0-0.8,0-1.3,0.1-1.7c0.1-0.4,0.1-0.6,0.1-0.7c0-0.1,0-0.1,0-0.1c0,0,0,0-0.1,0c0,0-0.1,0-0.2,0.1
		c-0.2,0.1-0.4,0.1-0.5,0.2s-0.4,0.2-0.6,0.2c-0.2,0.1-0.5,0.2-0.8,0.2c-0.1,0-0.1,0.1-0.1,0.2c0,0.1,0.1,0.2,0.2,0.2
		c0.3,0.1,0.5,0.2,0.6,0.4c0.1,0.2,0.2,0.5,0.2,0.9v9c0,0.2-0.1,0.4-0.3,0.5c-0.2,0.1-0.3,0.2-0.5,0.2c-0.1,0-0.2,0.1-0.3,0.1
		s-0.1,0.1-0.1,0.2c0,0.1,0.1,0.2,0.4,0.2c0.2,0,0.4,0,0.5,0c0.1,0,0.2,0,0.4,0c0.1,0,0.3,0,0.5,0c0.2,0,0.4,0,0.5,0
		c0.1,0,0.2,0,0.3,0c0.1,0,0.3,0,0.5,0c0,0,0.1,0,0.2,0c0.1,0,0.2-0.1,0.2-0.2c0-0.1,0-0.2-0.1-0.2c-0.1,0-0.2-0.1-0.3-0.1
		c-0.2-0.1-0.3-0.1-0.4-0.2c-0.1-0.1-0.2-0.3-0.2-0.5c0-0.2,0-0.4,0-0.6s0-0.4,0-0.6s0-0.4,0-0.6s0-0.4,0-0.5c0-0.1,0-0.1,0.1-0.1
		c0,0,0.1,0,0.2,0.1l2.2,2.5c0,0,0.1,0.1,0.1,0.1c0,0,0,0.1,0,0.1c0,0.1,0,0.2-0.1,0.3c-0.1,0.1-0.2,0.1-0.3,0.2
		c-0.1,0-0.2,0.1-0.2,0.1c-0.1,0-0.1,0.1-0.1,0.2c0,0.1,0.1,0.2,0.3,0.2c0.6,0,1.2,0,1.8,0c0.6,0,1.1,0,1.6,0c0.2,0,0.4-0.1,0.4-0.2
		C29,62.8,28.9,62.7,28.8,62.7z"/>
	<path class="st0" d="M35.2,61.2C35.2,61.2,35.2,61.2,35.2,61.2c-0.1,0-0.1,0.1-0.2,0.1c-0.2,0.3-0.5,0.5-0.8,0.6
		c-0.3,0.1-0.6,0.2-1,0.2c-0.5,0-1-0.1-1.4-0.4c-0.4-0.3-0.8-0.7-1-1.1c-0.3-0.5-0.4-1-0.4-1.6c0-0.3,0-0.4,0.1-0.5s0.2-0.1,0.4-0.1
		h3.8c0.4,0,0.5-0.2,0.5-0.6c0-0.4-0.1-0.8-0.3-1.2s-0.5-0.6-0.9-0.8c-0.4-0.2-0.8-0.3-1.3-0.3c-0.6,0-1.2,0.2-1.7,0.5
		c-0.5,0.3-1,0.8-1.3,1.4c-0.3,0.6-0.5,1.2-0.5,1.9c0,0.8,0.1,1.5,0.4,2.1c0.3,0.6,0.7,1.1,1.2,1.4s1.1,0.5,1.7,0.5
		c0.3,0,0.6,0,0.9-0.1c0.3-0.1,0.6-0.2,0.8-0.4s0.5-0.4,0.6-0.6c0.2-0.3,0.3-0.5,0.3-0.8C35.4,61.3,35.3,61.2,35.2,61.2z M31,56.9
		c0.2-0.2,0.4-0.4,0.7-0.6c0.3-0.2,0.6-0.2,0.8-0.2c0.4,0,0.8,0.1,1.1,0.4s0.5,0.5,0.5,0.9c0,0.1,0,0.2,0,0.3c0,0.1-0.1,0.1-0.1,0.1
		c-0.2,0-0.4,0.1-0.6,0.1c-0.2,0-0.5,0-0.7,0H31c-0.1,0-0.2-0.1-0.2-0.2C30.8,57.4,30.8,57.2,31,56.9z"/>
	<path class="st0" d="M46.4,62c0,0-0.1,0-0.1,0.1c-0.1,0.1-0.4,0.2-0.7,0.2c-0.2,0-0.4-0.1-0.5-0.2s-0.2-0.4-0.2-0.6l0.1-4.3
		c0-0.5-0.1-0.8-0.4-1.1c-0.3-0.3-0.6-0.5-1.1-0.5c-0.2,0-0.5,0.1-0.8,0.2s-0.6,0.3-1,0.5c-0.3,0.2-0.6,0.4-0.9,0.7
		c-0.2,0.2-0.4,0.4-0.5,0.6c-0.1,0.2-0.2,0.4-0.2,0.6c0,0,0,0.1,0.1,0.1c0,0,0.1,0,0.1,0c0.1,0,0.3,0,0.5-0.1s0.4-0.2,0.5-0.3
		c0.1-0.1,0.2-0.2,0.2-0.2c0,0,0-0.1,0-0.2c0-0.1,0-0.1,0-0.2c0-0.1,0-0.2,0-0.3c0-0.1,0.1-0.2,0.1-0.2c0.1-0.1,0.3-0.2,0.4-0.2
		c0.2-0.1,0.4-0.1,0.5-0.1c0.3,0,0.6,0.1,0.8,0.3c0.2,0.2,0.3,0.5,0.3,0.8l0,1.2c0,0.2,0,0.4-0.1,0.5c0,0.1-0.2,0.2-0.4,0.3
		l-1.8,0.8c-0.4,0.2-0.8,0.4-1,0.6c-0.2,0.2-0.3,0.5-0.3,0.9c0,0.2,0.1,0.4,0.2,0.7c0.1,0.2,0.3,0.4,0.6,0.6
		c0.2,0.2,0.4,0.3,0.7,0.3c0.4,0,0.8-0.1,1.1-0.2c0.4-0.2,0.7-0.4,1.1-0.7h0.1c0.3,0.6,0.8,0.9,1.3,0.9c0.2,0,0.4-0.1,0.6-0.2
		c0.2-0.1,0.4-0.3,0.6-0.5c0.1-0.1,0.2-0.3,0.2-0.4c0-0.1,0-0.1-0.1-0.1C46.5,62,46.4,62,46.4,62z M43.7,61.2c0,0.2,0,0.4-0.1,0.5
		c0,0.1-0.1,0.2-0.2,0.2c-0.1,0.1-0.3,0.2-0.5,0.3s-0.4,0.1-0.6,0.1c-0.2,0-0.4-0.1-0.6-0.2c-0.2-0.2-0.3-0.4-0.3-0.7
		c0-0.2,0.1-0.4,0.4-0.7c0.2-0.2,0.7-0.5,1.3-0.7c0.1,0,0.2-0.1,0.2-0.1c0.1,0,0.1,0,0.1,0c0.1,0,0.1,0,0.1,0.1c0,0.1,0,0.2,0,0.3
		L43.7,61.2z"/>
	<path class="st0" d="M59.2,57.4c-0.3-0.2-0.5-0.4-0.8-0.5c-0.3-0.1-0.6-0.2-0.9-0.3c0,0-0.1-0.1-0.1-0.1s0-0.1,0.1-0.1
		c0.3-0.1,0.5-0.2,0.7-0.3c0.2-0.1,0.3-0.2,0.5-0.4c0.1-0.1,0.3-0.4,0.4-0.7c0.1-0.3,0.2-0.7,0.2-1.1c0-1-0.3-1.7-1-2.1
		c-0.7-0.4-1.7-0.6-3.1-0.6c-0.3,0-0.6,0-0.8,0c-0.2,0-0.4,0-0.6,0c-0.2,0-0.4,0-0.6,0c-0.2,0-0.4,0-0.6,0s-0.3,0-0.5,0
		s-0.4,0-0.8,0c-0.2,0-0.3,0-0.4,0s-0.1,0.1-0.1,0.2c0,0.1,0,0.2,0.1,0.2c0.1,0.1,0.2,0.1,0.5,0.1c0.4,0,0.8,0.2,0.9,0.4
		s0.3,0.5,0.3,1v8.1c0,0.4-0.1,0.7-0.4,0.9c-0.2,0.2-0.6,0.3-1,0.4c-0.4,0.1-0.6,0.2-0.6,0.3c0,0.1,0,0.1,0.1,0.2c0.1,0,0.2,0,0.4,0
		c0.3,0,0.6,0,0.9,0c0.2,0,0.5,0,0.7,0c0.2,0,0.5,0,0.8,0c0.4,0,0.7,0,1,0c0.3,0,0.5,0,0.7,0c0.7,0,1.3-0.1,1.8-0.2
		c0.5-0.1,0.9-0.3,1.3-0.5c0.3-0.1,0.5-0.3,0.8-0.5s0.5-0.5,0.7-0.9c0.2-0.4,0.3-0.9,0.3-1.6c0-0.5-0.1-1-0.2-1.3
		S59.4,57.6,59.2,57.4z M53.9,52.5c0-0.3,0.1-0.5,0.2-0.6s0.5-0.2,1-0.2c0.7,0,1.3,0.1,1.7,0.4c0.4,0.3,0.6,0.6,0.8,0.9
		c0.1,0.4,0.2,0.7,0.2,1.1c0,0.5-0.1,0.9-0.3,1.2c-0.2,0.3-0.4,0.4-0.5,0.5c-0.4,0.2-0.7,0.3-1.1,0.4s-0.7,0.1-1.1,0.1
		c-0.1,0-0.3,0-0.5-0.1c-0.2-0.1-0.3-0.3-0.3-0.6V52.5z M57.9,61c-0.3,0.4-0.6,0.7-1.1,1c-0.5,0.2-0.9,0.4-1.5,0.4
		c-0.5,0-0.8-0.1-1.1-0.3s-0.4-0.5-0.4-1v-3.6c0-0.1,0.1-0.3,0.2-0.4c0.2-0.2,0.4-0.2,0.8-0.2c0.5,0,1,0.1,1.3,0.2
		c0.3,0.1,0.6,0.2,0.7,0.3c0.2,0.1,0.4,0.2,0.6,0.4c0.2,0.2,0.4,0.4,0.5,0.7c0.2,0.3,0.2,0.7,0.2,1.2C58.3,60.1,58.2,60.6,57.9,61z"
		/>
	<path class="st0" d="M65.8,55.5c-0.2,0-0.5,0.1-0.7,0.2c-0.2,0.1-0.5,0.3-0.7,0.4c-0.2,0.2-0.4,0.4-0.6,0.6c0,0,0,0,0,0
		c0-0.2,0-0.4,0-0.6s0-0.4,0-0.5c0-0.1,0-0.2,0-0.3c0-0.1,0-0.1-0.1-0.1c0,0-0.1,0-0.1,0c0,0-0.1,0.1-0.2,0.1
		c-0.2,0.1-0.5,0.3-0.8,0.5c-0.3,0.2-0.7,0.3-1,0.4c-0.1,0-0.2,0.1-0.2,0.2c0,0,0,0.1,0.1,0.1c0,0,0.1,0.1,0.1,0.1
		c0.3,0.1,0.5,0.2,0.6,0.5c0.1,0.2,0.1,0.5,0.1,0.8v3.9c0,0.2-0.1,0.3-0.2,0.4c-0.1,0.1-0.3,0.2-0.5,0.3c-0.1,0-0.2,0.1-0.3,0.1
		c-0.1,0-0.1,0.1-0.1,0.2c0,0.1,0,0.1,0.1,0.2c0.1,0,0.2,0,0.3,0c0.2,0,0.4,0,0.6,0c0.1,0,0.3,0,0.4,0c0.1,0,0.3,0,0.5,0
		c0.3,0,0.6,0,0.7,0c0.2,0,0.5,0,0.8,0c0.2,0,0.4-0.1,0.4-0.2c0-0.1,0-0.1-0.1-0.2c-0.1,0-0.2-0.1-0.3-0.1c-0.3-0.1-0.5-0.2-0.7-0.3
		c-0.2-0.1-0.3-0.2-0.3-0.4v-3.6c0-0.6,0.1-1,0.4-1.2s0.5-0.3,0.8-0.3c0.1,0,0.2,0,0.3,0.1s0.2,0.1,0.3,0.1c0.1,0,0.2,0.1,0.3,0.1
		c0.1,0,0.2,0,0.2,0c0.1,0,0.2-0.1,0.3-0.2c0.1-0.1,0.2-0.2,0.3-0.4c0.1-0.1,0.1-0.3,0.1-0.4c0-0.2-0.1-0.3-0.2-0.4
		C66.3,55.6,66.1,55.5,65.8,55.5z"/>
	<path class="st0" d="M73.2,61.2C73.2,61.2,73.1,61.2,73.2,61.2c-0.1,0-0.2,0.1-0.2,0.1c-0.2,0.3-0.5,0.5-0.8,0.6
		c-0.3,0.1-0.6,0.2-1,0.2c-0.5,0-1-0.1-1.4-0.4c-0.4-0.3-0.8-0.7-1-1.1c-0.3-0.5-0.4-1-0.4-1.6c0-0.3,0-0.4,0.1-0.5
		c0.1-0.1,0.2-0.1,0.4-0.1h3.8c0.4,0,0.5-0.2,0.5-0.6c0-0.4-0.1-0.8-0.3-1.2c-0.2-0.3-0.5-0.6-0.9-0.8c-0.4-0.2-0.8-0.3-1.3-0.3
		c-0.6,0-1.2,0.2-1.7,0.5c-0.5,0.3-1,0.8-1.3,1.4c-0.3,0.6-0.5,1.2-0.5,1.9c0,0.8,0.1,1.5,0.4,2.1c0.3,0.6,0.7,1.1,1.2,1.4
		s1.1,0.5,1.7,0.5c0.3,0,0.6,0,0.9-0.1c0.3-0.1,0.6-0.2,0.8-0.4s0.5-0.4,0.6-0.6c0.2-0.3,0.3-0.5,0.3-0.8
		C73.3,61.3,73.3,61.2,73.2,61.2z M69,56.9c0.2-0.2,0.4-0.4,0.7-0.6c0.3-0.2,0.6-0.2,0.8-0.2c0.4,0,0.8,0.1,1.1,0.4
		c0.3,0.2,0.5,0.5,0.5,0.9c0,0.1,0,0.2,0,0.3c0,0.1-0.1,0.1-0.1,0.1c-0.2,0-0.4,0.1-0.6,0.1c-0.2,0-0.5,0-0.7,0H69
		c-0.1,0-0.2-0.1-0.2-0.2C68.7,57.4,68.8,57.2,69,56.9z"/>
	<path class="st0" d="M80.8,62c0,0-0.1,0-0.1,0.1c-0.1,0.1-0.4,0.2-0.7,0.2c-0.2,0-0.4-0.1-0.5-0.2c-0.1-0.2-0.2-0.4-0.2-0.6
		l0.1-4.3c0-0.5-0.1-0.8-0.4-1.1c-0.3-0.3-0.6-0.5-1.1-0.5c-0.2,0-0.5,0.1-0.8,0.2s-0.6,0.3-1,0.5s-0.6,0.4-0.9,0.7
		c-0.2,0.2-0.4,0.4-0.5,0.6c-0.1,0.2-0.2,0.4-0.2,0.6c0,0,0,0.1,0.1,0.1c0,0,0.1,0,0.1,0c0.1,0,0.3,0,0.5-0.1s0.4-0.2,0.5-0.3
		c0.2-0.1,0.2-0.2,0.2-0.2c0,0,0-0.1,0-0.2c0-0.1,0-0.1,0-0.2c0-0.1,0-0.2,0-0.3c0-0.1,0.1-0.2,0.1-0.2c0.1-0.1,0.3-0.2,0.5-0.2
		c0.2-0.1,0.4-0.1,0.5-0.1c0.3,0,0.6,0.1,0.8,0.3c0.2,0.2,0.3,0.5,0.3,0.8l0,1.2c0,0.2,0,0.4-0.1,0.5c0,0.1-0.2,0.2-0.4,0.3
		l-1.8,0.8c-0.4,0.2-0.8,0.4-1,0.6c-0.2,0.2-0.3,0.5-0.3,0.9c0,0.2,0.1,0.4,0.2,0.7c0.2,0.2,0.3,0.4,0.6,0.6
		c0.2,0.2,0.4,0.3,0.7,0.3c0.4,0,0.8-0.1,1.1-0.2c0.4-0.2,0.7-0.4,1.1-0.7h0.1c0.3,0.6,0.8,0.9,1.3,0.9c0.2,0,0.4-0.1,0.6-0.2
		c0.2-0.1,0.4-0.3,0.6-0.5c0.1-0.1,0.2-0.3,0.2-0.4c0-0.1,0-0.1-0.1-0.1C80.9,62,80.8,62,80.8,62z M78,61.2c0,0.2,0,0.4-0.1,0.5
		c0,0.1-0.1,0.2-0.2,0.2c-0.1,0.1-0.3,0.2-0.4,0.3s-0.4,0.1-0.6,0.1c-0.2,0-0.4-0.1-0.6-0.2c-0.2-0.2-0.3-0.4-0.3-0.7
		c0-0.2,0.1-0.4,0.4-0.7c0.2-0.2,0.7-0.5,1.3-0.7c0.1,0,0.2-0.1,0.2-0.1c0.1,0,0.1,0,0.1,0c0.1,0,0.1,0,0.1,0.1c0,0.1,0,0.2,0,0.3
		L78,61.2z"/>
	<path class="st0" d="M89.7,62.1c-0.2,0-0.3,0-0.5,0c-0.2,0-0.3,0-0.3,0c-0.1,0-0.2-0.1-0.3-0.3s-0.1-0.5-0.1-0.9v-8.1
		c0-0.5,0-1,0-1.3c0-0.3,0-0.6,0.1-0.8c0-0.2,0-0.3,0-0.4c0-0.1-0.1-0.1-0.1-0.1c0,0-0.1,0-0.1,0c0,0-0.1,0-0.1,0
		c-0.2,0.1-0.4,0.2-0.7,0.3c-0.3,0.1-0.7,0.2-1.2,0.4c-0.1,0-0.1,0.1-0.1,0.2c0,0.1,0.1,0.2,0.2,0.2c0.3,0,0.5,0.2,0.7,0.3
		c0.2,0.2,0.2,0.5,0.2,1v2.6c0,0.3,0,0.4-0.1,0.4c0,0-0.1,0-0.2-0.1c-0.1,0-0.3-0.1-0.6-0.1c-0.2,0-0.5-0.1-0.7-0.1
		c-0.8,0-1.6,0.2-2.2,0.6c-0.6,0.4-1.1,0.9-1.4,1.5c-0.3,0.6-0.5,1.3-0.5,2c0,0.6,0.1,1.2,0.4,1.7c0.3,0.6,0.7,1,1.2,1.4
		s1.1,0.5,1.8,0.5c0.6,0,1.1-0.1,1.5-0.4c0.4-0.3,0.7-0.6,0.9-0.8v0.1c0,0.2,0,0.3,0,0.6c0,0.2,0,0.4,0,0.5c0,0,0,0.1,0.1,0.1
		s0.1,0.1,0.1,0.1c0,0,0.1,0,0.1,0c0,0,0.1,0,0.2-0.1c0.4-0.2,0.8-0.3,1.1-0.4s0.7-0.2,1-0.2c0.1,0,0.1,0,0.2-0.1
		c0.1-0.1,0.1-0.1,0.1-0.2C90,62.2,89.9,62.1,89.7,62.1z M87.3,61.4c-0.2,0.3-0.5,0.5-0.8,0.6s-0.6,0.2-0.9,0.2
		c-0.2,0-0.4,0-0.7-0.1c-0.3-0.1-0.6-0.2-0.9-0.4c-0.3-0.2-0.5-0.5-0.7-0.9c-0.2-0.4-0.3-1-0.3-1.6c0-0.8,0.1-1.4,0.4-1.8
		s0.6-0.7,0.9-0.9c0.3-0.2,0.7-0.3,0.9-0.3c0.4,0,0.8,0.1,1.2,0.3c0.3,0.2,0.6,0.5,0.8,0.8c0.2,0.3,0.3,0.6,0.3,1L87.3,61.4z"/>
	<path class="st0" d="M45.8,13.3L45.8,13.3C45.8,13.3,45.8,13.3,45.8,13.3C45.7,13.3,45.7,13.3,45.8,13.3z"/>
	<path class="st0" d="M45.8,13.2L45.8,13.2L45.8,13.2C45.8,13.2,45.8,13.2,45.8,13.2z"/>
	<path class="st0" d="M45.8,13.1C45.8,13.1,45.8,13.1,45.8,13.1C45.8,13.1,45.8,13.1,45.8,13.1L45.8,13.1
		C45.8,13.1,45.8,13.1,45.8,13.1z"/>
	<path class="st0" d="M45.4,13c0-0.1-0.1-0.1-0.1-0.2c0,0,0.1,0,0.1-0.1c0-0.1-0.2-0.2-0.2-0.1c0,0.1,0,0.2,0,0.3
		c0,0.1,0.1,0.2,0.1,0.3c0,0,0,0,0,0.1c0,0,0.1,0,0.1-0.1C45.4,13.1,45.3,13,45.4,13C45.2,12.9,45.4,13,45.4,13z"/>
	<path class="st0" d="M45.6,13.6L45.6,13.6C45.5,13.6,45.5,13.6,45.6,13.6c-0.1,0.1-0.1,0.1-0.1,0.2c0,0,0.1,0,0.1,0
		c0,0,0-0.1,0-0.1C45.6,13.7,45.6,13.6,45.6,13.6z"/>
	<path class="st0" d="M45.4,13.7C45.4,13.7,45.4,13.7,45.4,13.7L45.4,13.7C45.4,13.8,45.4,13.7,45.4,13.7L45.4,13.7z"/>
	<path class="st0" d="M62.1,12.3L62.1,12.3C62.1,12.3,62.1,12.3,62.1,12.3C62.1,12.3,62.1,12.3,62.1,12.3z"/>
	<path class="st0" d="M62.2,12.2L62.2,12.2L62.2,12.2C62.2,12.2,62.2,12.2,62.2,12.2z"/>
	<path class="st0" d="M62.2,12.2C62.2,12.2,62.2,12.2,62.2,12.2C62.2,12.2,62.1,12.2,62.2,12.2C62.1,12.2,62.2,12.2,62.2,12.2
		L62.2,12.2z"/>
	<path class="st0" d="M61.7,11.4c0,0.1,0,0.2,0,0.3c0,0.1,0,0.2,0,0.4c0,0,0,0,0,0.1c0,0,0.1,0,0.1,0c0.1,0-0.1-0.2-0.1-0.3
		c0,0,0.1,0.1,0.1,0c0-0.1-0.1-0.2,0-0.2c0,0,0.1,0,0.1,0C61.9,11.5,61.7,11.3,61.7,11.4z"/>
	<path class="st0" d="M61.8,12.6c-0.1,0-0.2,0-0.2,0.1c0,0,0.1,0.1,0.1,0.1C61.8,12.7,61.7,12.7,61.8,12.6
		C61.9,12.7,61.9,12.6,61.8,12.6L61.8,12.6C61.8,12.6,61.8,12.6,61.8,12.6z"/>
	<path class="st0" d="M61.6,12.7C61.7,12.7,61.7,12.7,61.6,12.7C61.7,12.7,61.7,12.7,61.6,12.7L61.6,12.7
		C61.7,12.7,61.6,12.7,61.6,12.7z"/>
	<polygon class="st0" points="9.7,19.5 9.7,19.5 9.7,19.5 	"/>
	<path class="st0" d="M3.8,26.7C3.8,26.7,3.7,26.7,3.8,26.7c0,0,0-0.1,0.1-0.1C3.8,26.6,3.8,26.6,3.8,26.7z"/>
	<path class="st0" d="M83.5,26.2c1.6-1.1,3.1-2.2,4.4-3.7c0.7-0.7,1.3-1.5,1.8-2.4c0.5-0.9,0.9-2,0.9-3.1c0.1-1.1-0.2-2.3-0.7-3.3
		c-0.5-1-1.2-1.7-2-2.4C86.3,10,84.6,9.2,83,8.5c-1.7-0.7-3.4-1.2-5.1-1.6c-1.7-0.4-3.4-0.7-5.1-0.9C69.4,5.6,66,5.4,62.5,5.4
		c-0.3,0-0.5,0-0.8,0c-0.1,0-0.1-0.1-0.2-0.1c-0.1,0-0.1,0.1-0.2,0.1c-3.1,0-6.2,0.1-9.4,0.3C49.2,5.8,45.3,6.3,41.4,7
		c-3.9,0.7-7.7,1.6-10.2,2.3c-1.4,0.5-2.4,0.8-3,1.1c-0.1,0-0.1,0-0.2,0c-0.2,0-0.4,0.1-0.7,0.1c-0.2,0-0.2,0-0.5,0.1
		c0,0-0.2,0-0.4,0.2c-0.2,0.1-0.4,0.1-0.7,0.2c-0.3,0-6.1,2.2-6.5,2.4c-2.3,0.9-4.2,2-6.4,3.5c-0.6,0.4-1,0.9-1.4,1.4
		c-0.3,0.3-0.7,0.5-1,0.7c-0.2,0.2-0.4,0.3-0.6,0.5c0,0,0,0,0,0c-0.2,0.2-0.4,0.4-0.5,0.6c0.4-0.4,0.6-0.6,1.1-1
		c0.3-0.3-0.1,0.3-0.3,0.5c-0.1,0.1-0.3,0.1-0.4,0.2c-0.1,0.1-0.2,0.2-0.3,0.3c-0.1,0-0.2,0.1-0.3,0.1c0.1,0,0.2-0.1,0.3-0.1
		c0,0,0,0,0,0c-0.1,0.1-0.2,0.1-0.3,0.2c0.1-0.1,0.2-0.1,0.3-0.1c0,0.1-0.1,0.1-0.1,0.2c-0.1,0.1-0.1,0-0.2,0
		c-0.2,0.2-0.3,0.6-0.5,0.7c-0.1,0-0.2,0.1-0.3,0.2c0,0-0.1,0-0.1,0.1C8,21.3,8,21.4,7.9,21.4c0,0.1-0.1,0.1-0.1,0.2
		c0,0-0.1,0.1-0.1,0.1c-0.2,0.1-0.3,0.2-0.5,0.3c0-0.1,0-0.1-0.1,0c-0.4,0.4-0.7,0.7-1,1.1c-0.3,0.4-0.5,0.7-0.8,1.1
		c-0.1,0.1-0.2,0.2-0.3,0.2c0.1-0.1,0.2-0.2,0.4-0.3c0.2-0.1,0.2-0.5,0.5-0.8c0-0.1,0.1,0.1,0.2,0c0.2-0.2,0.3-0.4,0.4-0.6
		c0-0.1,0.1-0.1,0.2-0.1c-0.6,0.7-1.1,1.3-1.6,2.1C5,25,4.8,25.2,4.6,25.5l-0.1,0c-0.1,0.1-0.1,0.1,0,0.1c0,0,0,0,0,0
		c-0.2,0.1-0.3,0.2-0.4,0.3c0-0.1,0.1-0.2,0.2-0.4c0.1-0.2,0.2-0.3,0.3-0.5c-0.2,0.2-0.4,0.6-0.6,1c0,0-0.1,0.1-0.1,0.1l0,0
		c0,0,0-0.1,0.1-0.1c-0.1,0.1-0.1,0.2-0.1,0.4C3.9,26.3,4,26.2,4,26.2c0,0,0,0,0,0c-0.2,0.4-0.3,0.9-0.4,1.3c-0.1,0.5-0.1,1-0.1,1.5
		c0.1,0.9,0.4,1.8,0.8,2.5c-0.1-0.2-0.2-0.3-0.1-0.3c0,0,0.2,0.3,0.5,0.6C4.9,32,5,32.1,5,32.2c0.1,0.1,0.1,0.2,0.2,0.3
		c-0.6-0.6-1.1-1.3-1.4-2.1c-0.3-0.8-0.4-1.7-0.2-2.6c0,0,0,0,0-0.1c0-0.1,0-0.2,0-0.3c0-0.1,0-0.2,0.1-0.4c0-0.1,0-0.2,0.1-0.3
		c0,0.1,0,0.1-0.1,0.2c-0.1,0.2-0.1,0.4-0.1,0.5c0,0.2-0.1,0.3-0.1,0.4c0,0.1,0,0.2,0,0.3c0,0.1,0,0.1,0,0.1
		c-0.1,1.3,0.4,2.6,1.1,3.5c0.7,1,1.6,1.7,2.5,2.4C8,34.8,9,35.3,10,35.7c1,0.4,2,0.8,3,1.1c0.3,0.1,0.5,0.1,0.9,0.2
		c0.3,0.1,0.6,0.2,0.9,0.3c0.6,0.1,1.2,0.3,1.8,0.4c0.2,0,0.4,0.1,0.6,0.1c0,0,0,0,0,0c0.3,0,0.2,0,0-0.1c-0.2-0.1-0.4-0.1-0.6-0.2
		c0.1,0,0.4,0.1,0.6,0.2c0.3,0.1,0.6,0.1,1,0.2c0.2,0,0.4,0.1,0.7,0.1c-0.2,0-0.3-0.1-0.5-0.1c0,0-0.1,0-0.1,0
		c-0.3-0.1-0.7-0.1-1-0.2c-0.1,0-0.2,0-0.3,0c1.4,0.3,2.7,0.5,4.1,0.7c0.3,0,0.6,0.1,0.9,0.1c1,0.1,2,0.2,2.6,0.3
		c0.2,0,0.5,0,0.7,0.1c0,0-0.1,0-0.1,0c0.1,0,0.2,0,0.3,0c1,0.1,2.1,0.1,3.1,0.2c2,0.1,4.1,0.1,6.2,0c6.7-0.2,13.1-0.9,19.5-2.2
		c3.2-0.6,6.4-1.4,9.6-2.3c3.2-0.9,6.5-2,9.7-3.3c1.8-0.7,3.5-1.5,5.2-2.3C80.3,28.2,81.9,27.3,83.5,26.2z M62.6,10.5
		c0.1,0.1,0,0.1-0.1,0.1C62.5,10.5,62.6,10.5,62.6,10.5z M43,8.3c0.1,0,0.5-0.1,1.1-0.2c0,0,0,0.1,0,0.2C43.2,8.3,42.9,8.4,43,8.3z
		 M11.6,19.1c-0.1,0.2-0.3,0.2-0.5,0.2C11.2,19.2,11.4,19.1,11.6,19.1z M7.2,22c0.2-0.1,0.3-0.2,0.5-0.3c-0.2,0.2-0.4,0.4-0.6,0.6
		C7.1,22.2,7.2,22.1,7.2,22z M32.3,39.1c1,0,2.2,0,3.3,0C34.3,39.2,33.2,39.1,32.3,39.1z M71.7,30.6c-3.6,1.4-7.3,2.6-11.1,3.6
		c-3.8,1-7.7,1.8-11.8,2.4c-4.3,0.7-8.1,1.2-11.8,1.5c-2.7,0.2-5.6,0.1-7.8,0.1c-3.4-0.1-6.4-0.3-9.2-0.6c3.2,0.4,5.5,0.5,9,0.6
		c1.2,0,0.8,0.1-0.1,0.1c-0.9,0-2.3,0-3.1,0c-0.7,0-1.7-0.3-2.4-0.3c-1.5-0.1-2.8-0.2-4.3-0.4c-0.7-0.1-0.6-0.2-0.9-0.3
		c-2.1-0.3-3.8-0.5-5.1-1c-1-0.3-1.9-0.7-2.7-1c-0.5-0.2-1.1-0.5-1.6-0.8c-0.3-0.2-0.7-0.3-1-0.5c-0.6-0.4-1.2-0.8-1.8-1.3
		c-0.6-0.5-1.1-1.1-1.5-1.8c-0.4-0.7-0.7-1.5-0.7-2.4c0-0.8,0.1-1.6,0.4-2.4c0,0,0,0,0.1,0c0-0.1,0.1-0.2,0.1-0.2
		c0.1,0,0.2-0.1,0.2-0.2C4.2,26.2,4,26.6,3.9,27c-0.1,0.4-0.2,1-0.1,1.6c0,0.6,0.2,1.2,0.4,1.6c0.2,0.4,0.4,0.7,0.4,0.7
		c0.1,0-0.1-0.1-0.3-0.7C4,29.4,3.9,28.6,4,27.8c0.1-0.8,0.3-1.5,0.7-2.1c0.6-1.3,1.5-2.3,2.7-3.4c-0.1,0.2-0.3,0.4-0.5,0.6l0,0
		c0.2-0.2,0.4-0.4,0.7-0.5c-0.1,0.1-0.1,0,0-0.1l0.1,0c-0.2,0.2-0.3,0.4-0.6,0.5c0,0-0.1,0.1-0.1,0.2c-0.1,0-0.1,0-0.1,0
		c0,0-0.1,0.1-0.1,0.1c0.1,0,0.5-0.2,0.5-0.2C7.5,22.5,7.7,22.3,8,22c0.2-0.2,0.5-0.4,0.8-0.7c0-0.1,0-0.1,0.1-0.1
		c0.1,0,0.1,0,0.1-0.1C9,21.1,9.1,21,9.2,21c0,0,0-0.1,0.1-0.1l0,0c0,0,0-0.1,0-0.1c0,0,0,0,0,0c0,0,0.1,0,0.1-0.1
		c0,0,0.1-0.1,0.1-0.1c0,0,0,0-0.1,0.1c0,0,0,0,0,0c0,0-0.1,0.1-0.1,0.1c0,0,0,0,0,0c0,0,0,0,0,0c0,0,0,0,0,0l0,0
		c0.2-0.1,0.3-0.3,0.5-0.4c0,0,0.1-0.1,0.1-0.1c0.1-0.1,0.2-0.2,0.3-0.2c0,0,0.1,0,0.1-0.1c0,0,0,0,0,0c0,0,0,0,0,0
		c0.1-0.1,0.3-0.2,0.4-0.3c0.3-0.2,0.5-0.4,0.8-0.6c0.4-0.3,0.9-0.6,1.3-0.9c0.4-0.3,0.8-0.6,1.3-0.9c0.4-0.3,0.9-0.5,1.3-0.8
		c0.2-0.1,0.4-0.3,0.7-0.4c0.2-0.1,0.5-0.3,0.7-0.4c0.5-0.3,1-0.5,1.5-0.8c0.5-0.2,1-0.5,1.5-0.7c0.5-0.2,1-0.4,1.5-0.6
		c0.5-0.2,1-0.4,1.4-0.6c0.5-0.2,1-0.3,1.5-0.5c0.5-0.1,1-0.2,1.6-0.3c0.8-0.1,2.2-0.6,3-0.7c0,0,0,0.1,0,0.2c0-0.1,0-0.2,0.1-0.2
		c0.1,0,0.1,0.1,0.1,0.3c-0.1,0.3,0,0.4,0.1,0.5c0.1,0.1,0.2,0.1,0.3,0.2c0,0.1,0.1,0.1,0.1,0.2c0,0.1,0.1,0.2,0.1,0.3
		c0,0.1,0.1,0.1,0.2,0.2c0.1,0.1,0.1,0.1,0.2,0.2c0.1,0.1,0.1,0.2,0.1,0.3c0,0.1,0.2,0.1,0.3,0.2c0,0.1,0,0.2,0,0.2
		c0,0.1,0.1,0.1,0.2,0.2c0-0.1-0.1-0.1-0.1-0.2c0-0.1,0.2,0,0.2,0c0,0-0.1,0.1-0.1,0.1c0,0,0.1,0.1,0.1,0.1c0,0-0.1,0-0.1,0.1
		c0,0,0.2,0,0.2,0.1c0,0,0,0.1,0,0.1c0,0,0,0,0,0.1l0,0c0.1,0.1,0.2,0.1,0.3,0.2l0,0c0,0,0-0.1,0.1-0.2c0,0,0,0,0,0c0,0,0,0.1,0,0.1
		c0,0,0,0,0,0c0,0,0,0,0,0c0,0,0,0,0,0c0,0,0,0,0,0c0,0,0,0,0,0c0,0-0.1,0-0.1,0c0,0,0,0,0,0c0.1,0,0.2-0.1,0.2-0.1
		c0-0.1,0-0.3-0.1-0.4c0,0-0.1,0,0,0c0,0,0,0,0,0l0-0.1c0,0,0,0,0,0l0,0c0,0,0,0-0.1,0c0,0,0,0,0,0c0,0,0,0,0,0c0,0,0,0,0,0
		c0,0,0,0,0,0c0,0,0,0,0,0c0,0,0,0,0,0c0,0,0,0,0,0l0,0c0,0,0-0.1,0-0.1c0,0,0,0,0,0c0,0-0.1,0,0-0.1l0,0c0,0,0,0,0,0c0,0,0,0,0,0
		l0-0.1c0-0.1,0-0.1,0-0.2c-0.1-0.4-0.2-0.8-0.4-1.2c0-0.1-0.1-0.2-0.1-0.4c0-0.1-0.1-0.2-0.1-0.4c-0.1-0.3-0.2-0.4-0.4-0.6
		c-0.1-0.1-0.1-0.2-0.2-0.3c0,0,0-0.1-0.1-0.1c1.7-0.3,3.2-0.7,5.2-1.1c2.3-0.5,5.1-1.1,9.1-1.6c0,0,0,0,0,0c0,0,0,0,0,0
		c0,0,0.1,0,0.1,0c0,0-0.1,0-0.1,0c0.1-0.2,0.3,0,0.1,0.3c-0.4,0.5,0.2,0.7,0.2,1c0,0.1,0,0.2,0.1,0.3c0,0.5,0.3,0.9,0.4,1.4
		c0,0.1,0.2,0.2,0.3,0.3c0,0.1,0,0.2,0,0.2c0,0.1,0.1,0.2,0.1,0.3c0-0.1-0.1-0.2-0.1-0.3c0-0.1,0.2,0,0.2,0.1c0,0-0.1,0.1-0.1,0.1
		c0,0,0.1,0.1,0.1,0.1c0,0-0.1,0-0.1,0c0,0.1,0.2,0.1,0.2,0.2c0,0,0,0.1-0.1,0.1c0,0,0,0,0,0.1l0,0c0.1,0.1,0.1,0.2,0.2,0.3l0,0
		c0-0.1,0-0.1,0.1-0.2c0,0-0.1,0-0.1,0l0.1,0c0,0.1,0.1,0.1,0,0.2c0,0,0,0,0,0c0,0-0.1,0-0.1,0c0,0,0,0,0,0c0.1,0,0.2-0.1,0.2-0.1
		c0-0.2,0-0.3,0.1-0.4c0,0-0.1,0,0,0c0,0,0,0,0.1,0l0-0.1c0,0,0,0,0,0l0,0c0,0,0,0-0.1,0c0,0,0,0,0,0c0,0,0,0,0,0l0,0l0-0.1
		c0,0,0,0,0,0c0,0,0-0.1,0-0.1l0,0c0,0,0,0,0,0c0,0,0,0,0,0l0-0.1c0-0.1,0-0.1,0-0.2c0.1-0.5-0.1-0.9-0.1-1.4c0-0.3-0.1-0.6-0.1-0.8
		c0-0.5-0.3-0.9-0.3-1.4c0,0,0,0,0,0c1.3-0.2,2.9-0.4,4.6-0.6c1.7-0.1,3.4-0.2,4.8-0.2c2,0,4.1,0,6.4,0c0,0,0,0.1,0,0.1
		c-0.1,0.3-0.1,0.4,0,0.5c0.1,0.1,0.2,0.2,0.2,0.4c0,0.1,0,0.2,0.1,0.2c0,0.3,0,0.5,0.1,0.7c0.1,0.2,0.1,0.5,0.1,0.7
		c0,0.1,0.1,0.3,0.2,0.4c0,0.1-0.1,0.2-0.1,0.2c0,0.1,0,0.2,0,0.3c0-0.1,0-0.2,0-0.3c0-0.1,0.2,0.1,0.2,0.2c0,0-0.1,0-0.1,0
		c0,0,0,0.1,0.1,0.2c0,0-0.1,0-0.1,0c0,0.1,0.2,0.2,0.1,0.2c0,0-0.1,0-0.1,0.1c0,0,0,0,0,0.1l0,0.1c0,0.1,0.1,0.3,0.1,0.4l0,0
		c0-0.1,0-0.1,0.2-0.1c0,0-0.1,0-0.1,0l0.1,0c0,0.1,0,0.2-0.1,0.1c0,0,0,0,0,0.1c0,0-0.1,0-0.1,0c0,0,0,0,0,0c0.1,0,0.2,0,0.2,0
		c0.1-0.2,0.1-0.3,0.2-0.5c0,0-0.1,0,0-0.1c0,0,0,0,0.1,0l0-0.1c0,0,0,0,0,0l0,0c0,0,0,0-0.1,0c0,0,0,0,0,0c0,0,0,0,0,0c0,0,0,0,0,0
		c0,0,0,0,0,0c0,0,0,0,0,0l0,0l0.1-0.1c0,0,0,0,0,0c0,0,0-0.1,0.1-0.1l0,0c0,0,0,0,0,0c0,0,0,0,0,0l0-0.1c0-0.1,0.1-0.2,0.1-0.2
		c0.2-0.5,0.2-1,0.2-1.6c0-0.3,0-0.7,0-1c0-0.3-0.1-0.5-0.2-0.8c2.1,0,4.3,0.1,6.5,0.3c2.6,0.2,5.3,0.5,7.9,1
		c2.6,0.5,5.2,1.3,7.4,2.5c1.1,0.6,2.2,1.3,3.2,2.3c0.9,0.9,1.6,2.2,1.5,3.6c0,0.9-0.4,1.8-0.8,2.6c-0.5,0.8-1.1,1.6-1.8,2.3
		c-1.3,1.4-2.9,2.6-4.5,3.6C78.8,27.5,75.3,29.1,71.7,30.6z M31.2,14.9C31.2,14.9,31.2,14.9,31.2,14.9
		C31.2,14.9,31.2,14.9,31.2,14.9z M31.1,14.8C31.1,14.8,31.1,14.8,31.1,14.8C31.1,14.9,31.1,14.9,31.1,14.8L31.1,14.8z M31,14
		c0,0,0-0.1,0-0.1C31.1,13.8,31.1,13.9,31,14z M45.8,11.5c0.1,0,0,0.1-0.1,0.1C45.7,11.6,45.8,11.6,45.8,11.5z"/>
	<path class="st0" d="M32,15L32,15c0,0,0-0.1,0-0.1l-0.1,0C32,15,32,15,32,15C31.9,15,31.9,15,32,15C32,15.1,32,15.1,32,15
		C32,15.1,32,15,32,15C32,15,32,15,32,15C32,15,32,15,32,15z"/>
	<path class="st0" d="M5.9,24.1C6,24,6,24,6.1,23.9c0,0-0.1,0.1-0.1,0.1C5.9,24,5.9,24,5.9,24.1z"/>
	<path class="st0" d="M6,23L6,23C6,23,6,23,6,23C6,23,6,23.1,6,23L6,23C6,23,6,23,6.1,22.9C6,23,6,23,6,23C6,23,6,23,6,23z"/>
</g>
</svg>
